<svg xmlns="http://www.w3.org/2000/svg" xmlns:xlink="http://www.w3.org/1999/xlink" version="1.1" data-diagram-type="DESCRIPTION" style="width:1376px;height:911px;background:#FFFFFF;" width="1376px" height="911px" viewBox="0 0 1376 911" zoomAndPan="magnify" preserveAspectRatio="none" contentStyleType="text/css"><?plantuml 1.2026.7beta3?><defs/><g><!--cluster CLIENTS--><g class="cluster" data-qualified-name="CLIENTS" id="ent0001" data-source-line="32"><path d="M11,191 L53.5938,191 A7.5,7.5 0 0 1 58.5938,196 L65.5938,210.9688 L135.84,210.9688 A5,5 0 0 1 140.84,215.9688 L140.84,416 A5,5 0 0 1 135.84,421 L11,421 A5,5 0 0 1 6,416 L6,196 A5,5 0 0 1 11,191" style="stroke:#7F77DD;stroke-width:1.5;" fill="#F1EFE8"/><line x1="6" y1="210.9688" x2="65.5938" y2="210.9688" style="stroke:#7F77DD;stroke-width:1.5;"/><text x="10" y="204.1387" fill="#534AB7" font-size="12" lengthAdjust="spacing" textLength="46.5938" font-weight="700" font-family="Arial">Clients</text></g><!--cluster EC2--><g class="cluster" data-qualified-name="EC2" id="ent0005" data-source-line="39"><path d="M169.84,6 L302.3986,6 A7.5,7.5 0 0 1 307.3986,11 L314.3986,25.9688 L1356.44,25.9688 A5,5 0 0 1 1361.44,30.9688 L1361.44,553 A5,5 0 0 1 1356.44,558 L169.84,558 A5,5 0 0 1 164.84,553 L164.84,11 A5,5 0 0 1 169.84,6" style="stroke:#7F77DD;stroke-width:1.5;" fill="#EBF4FD"/><line x1="164.84" y1="25.9688" x2="314.3986" y2="25.9688" style="stroke:#7F77DD;stroke-width:1.5;"/><text x="168.84" y="19.1387" fill="#534AB7" font-size="12" lengthAdjust="spacing" textLength="136.5586" font-weight="700" font-family="Arial">AWS EC2  [t2.micro]</text></g><!--cluster DOCKER--><g class="cluster" data-qualified-name="EC2.DOCKER" id="ent0006" data-source-line="41"><path d="M193.84,46 L303.0431,46 A7.5,7.5 0 0 1 308.0431,51 L315.0431,65.9688 L1332.44,65.9688 A5,5 0 0 1 1337.44,70.9688 L1337.44,529 A5,5 0 0 1 1332.44,534 L193.84,534 A5,5 0 0 1 188.84,529 L188.84,51 A5,5 0 0 1 193.84,46" style="stroke:#7F77DD;stroke-width:1.5;" fill="#DEECFA"/><line x1="188.84" y1="65.9688" x2="315.0431" y2="65.9688" style="stroke:#7F77DD;stroke-width:1.5;"/><text x="192.84" y="59.1387" fill="#534AB7" font-size="12" lengthAdjust="spacing" textLength="113.2031" font-weight="700" font-family="Arial">Docker Compose</text></g><!--cluster NESTJS--><g class="cluster" data-qualified-name="EC2.DOCKER.NESTJS" id="ent0008" data-source-line="45"><path d="M335.42,86 L459.8341,86 A7.5,7.5 0 0 1 464.8341,91 L471.8341,105.9688 L1091.16,105.9688 A5,5 0 0 1 1096.16,110.9688 L1096.16,505 A5,5 0 0 1 1091.16,510 L335.42,510 A5,5 0 0 1 330.42,505 L330.42,91 A5,5 0 0 1 335.42,86" style="stroke:#7F77DD;stroke-width:1.5;" fill="#EEEDFE"/><line x1="330.42" y1="105.9688" x2="471.8341" y2="105.9688" style="stroke:#7F77DD;stroke-width:1.5;"/><text x="334.42" y="99.1387" fill="#534AB7" font-size="12" lengthAdjust="spacing" textLength="128.4141" font-weight="700" font-family="Arial">NestJS API  [:3000]</text></g><!--cluster MODS--><g class="cluster" data-qualified-name="EC2.DOCKER.NESTJS.MODS" id="ent0010" data-source-line="49"><path d="M573.11,126 L661.108,126 A7.5,7.5 0 0 1 666.108,131 L673.108,145.9688 L753.62,145.9688 A5,5 0 0 1 758.62,150.9688 L758.62,481 A5,5 0 0 1 753.62,486 L573.11,486 A5,5 0 0 1 568.11,481 L568.11,131 A5,5 0 0 1 573.11,126" style="stroke:#7F77DD;stroke-width:1.5;" fill="#F0EFFD"/><line x1="568.11" y1="145.9688" x2="673.108" y2="145.9688" style="stroke:#7F77DD;stroke-width:1.5;"/><text x="572.11" y="139.1387" fill="#534AB7" font-size="12" lengthAdjust="spacing" textLength="91.998" font-weight="700" font-family="Arial">Core Modules</text></g><!--cluster EXT--><g class="cluster" data-qualified-name="EXT" id="ent0017" data-source-line="64"><path d="M832.85,582 L946.5414,582 A7.5,7.5 0 0 1 951.5414,587 L958.5414,601.9688 L1039.93,601.9688 A5,5 0 0 1 1044.93,606.9688 L1044.93,769 A5,5 0 0 1 1039.93,774 L832.85,774 A5,5 0 0 1 827.85,769 L827.85,587 A5,5 0 0 1 832.85,582" style="stroke:#7F77DD;stroke-width:1.5;" fill="#F0FAF5"/><line x1="827.85" y1="601.9688" x2="958.5414" y2="601.9688" style="stroke:#7F77DD;stroke-width:1.5;"/><text x="831.85" y="595.1387" fill="#534AB7" font-size="12" lengthAdjust="spacing" textLength="117.6914" font-weight="700" font-family="Arial">External Services</text></g><!--cluster MODELS--><g class="cluster" data-qualified-name="MODELS" id="ent0020" data-source-line="70"><path d="M1128.12,582 L1345.8856,582 A7.5,7.5 0 0 1 1350.8856,587 L1357.8856,601.9688 L1354.48,601.9688 A5,5 0 0 1 1359.48,606.9688 L1359.48,891 A5,5 0 0 1 1354.48,896 L1128.12,896 A5,5 0 0 1 1123.12,891 L1123.12,587 A5,5 0 0 1 1128.12,582" style="stroke:#7F77DD;stroke-width:1.5;" fill="#E6F1FB"/><line x1="1123.12" y1="601.9688" x2="1357.8856" y2="601.9688" style="stroke:#7F77DD;stroke-width:1.5;"/><text x="1127.12" y="595.1387" fill="#534AB7" font-size="12" lengthAdjust="spacing" textLength="221.7656" font-weight="700" font-family="Arial">Data Models  (Neon PostgreSQL)</text></g><!--entity WEB--><g class="entity" data-qualified-name="CLIENTS.WEB" id="ent0002" data-source-line="33"><rect x="24.47" y="371.02" width="97.9004" height="33.9688" fill="#F1EFE8" style="stroke:#534AB7;stroke-width:0.5;" rx="4" ry="4"/><text x="34.47" y="392.1587" fill="#26215C" font-size="12" lengthAdjust="spacing" textLength="77.9004" font-family="Arial">Web / Mobile</text></g><!--entity API--><g class="entity" data-qualified-name="CLIENTS.API" id="ent0003" data-source-line="34"><rect x="22" y="297.02" width="102.8398" height="33.9688" fill="#F1EFE8" style="stroke:#534AB7;stroke-width:0.5;" rx="4" ry="4"/><text x="32" y="318.1587" fill="#26215C" font-size="12" lengthAdjust="spacing" textLength="82.8398" font-family="Arial">Postman / API</text></g><!--entity ADMIN--><g class="entity" data-qualified-name="CLIENTS.ADMIN" id="ent0004" data-source-line="35"><rect x="25.81" y="223.02" width="95.2285" height="33.9688" fill="#F1EFE8" style="stroke:#534AB7;stroke-width:0.5;" rx="4" ry="4"/><text x="35.81" y="244.1587" fill="#26215C" font-size="12" lengthAdjust="spacing" textLength="75.2285" font-family="Arial">Admin client</text></g><!--entity NGINX--><g class="entity" data-qualified-name="EC2.DOCKER.NGINX" id="ent0007" data-source-line="43"><rect x="204.84" y="290.03" width="91.5781" height="47.9375" fill="#E1F5EE" style="stroke:#534AB7;stroke-width:0.5;" rx="4" ry="4"/><text x="214.84" y="311.1687" fill="#26215C" font-size="12" lengthAdjust="spacing" textLength="34.6348" font-family="Arial">Nginx</text><text x="214.84" y="325.1374" fill="#26215C" font-size="12" lengthAdjust="spacing" textLength="71.5781" font-family="Arial">:80 → :3000</text></g><!--entity REDIS--><g class="entity" data-qualified-name="EC2.DOCKER.REDIS" id="ent0016" data-source-line="59"><rect x="1161.16" y="200.03" width="160.2793" height="47.9375" fill="#FAECE7" style="stroke:#534AB7;stroke-width:0.5;" rx="4" ry="4"/><text x="1171.16" y="221.1687" fill="#26215C" font-size="12" lengthAdjust="spacing" textLength="32.9238" font-family="Arial">Redis</text><text x="1171.16" y="235.1374" fill="#26215C" font-size="12" lengthAdjust="spacing" textLength="140.2793" font-family="Arial">Cache + BullMQ broker</text></g><!--entity GW--><g class="entity" data-qualified-name="EC2.DOCKER.NESTJS.GW" id="ent0009" data-source-line="47"><rect x="346.42" y="290.03" width="187.6895" height="47.9375" fill="#CECBF6" style="stroke:#534AB7;stroke-width:0.5;" rx="4" ry="4"/><text x="356.42" y="311.1687" fill="#26215C" font-size="12" lengthAdjust="spacing" textLength="75.8086" font-family="Arial">API Gateway</text><text x="356.42" y="325.1374" fill="#26215C" font-size="12" lengthAdjust="spacing" textLength="167.6895" font-family="Arial">JWT · RBAC · DTO validation</text></g><!--entity BULL--><g class="entity" data-qualified-name="EC2.DOCKER.NESTJS.BULL" id="ent0015" data-source-line="56"><rect x="792.62" y="265.03" width="287.5449" height="47.9375" fill="#FAECE7" style="stroke:#534AB7;stroke-width:0.5;" rx="4" ry="4"/><text x="802.62" y="286.1687" fill="#26215C" font-size="12" lengthAdjust="spacing" textLength="93.7266" font-family="Arial">BullMQ workers</text><text x="802.62" y="300.1374" fill="#26215C" font-size="12" lengthAdjust="spacing" textLength="267.5449" font-family="Arial">Welcome email · reminders (1hr before due)</text></g><!--entity AUTH--><g class="entity" data-qualified-name="EC2.DOCKER.NESTJS.MODS.AUTH" id="ent0011" data-source-line="50"><rect x="589.29" y="158.03" width="148.1504" height="47.9375" fill="#EEEDFE" style="stroke:#534AB7;stroke-width:0.5;" rx="4" ry="4"/><text x="599.29" y="179.1687" fill="#26215C" font-size="12" lengthAdjust="spacing" textLength="76.9102" font-family="Arial">Auth module</text><text x="599.29" y="193.1374" fill="#26215C" font-size="12" lengthAdjust="spacing" textLength="128.1504" font-family="Arial">Register · Login · JWT</text></g><!--entity TASK--><g class="entity" data-qualified-name="EC2.DOCKER.NESTJS.MODS.TASK" id="ent0012" data-source-line="51"><rect x="584.11" y="246.03" width="158.5098" height="47.9375" fill="#EEEDFE" style="stroke:#534AB7;stroke-width:0.5;" rx="4" ry="4"/><text x="594.11" y="267.1687" fill="#26215C" font-size="12" lengthAdjust="spacing" textLength="76.6699" font-family="Arial">Task module</text><text x="594.11" y="281.1374" fill="#26215C" font-size="12" lengthAdjust="spacing" textLength="138.5098" font-family="Arial">CRUD · filter · paginate</text></g><!--entity USER--><g class="entity" data-qualified-name="EC2.DOCKER.NESTJS.MODS.USER" id="ent0013" data-source-line="52"><rect x="594.51" y="422.03" width="137.6973" height="47.9375" fill="#EEEDFE" style="stroke:#534AB7;stroke-width:0.5;" rx="4" ry="4"/><text x="604.51" y="443.1687" fill="#26215C" font-size="12" lengthAdjust="spacing" textLength="76.1367" font-family="Arial">User module</text><text x="604.51" y="457.1374" fill="#26215C" font-size="12" lengthAdjust="spacing" textLength="117.6973" font-family="Arial">Admin CRUD · roles</text></g><!--entity NOTIF--><g class="entity" data-qualified-name="EC2.DOCKER.NESTJS.MODS.NOTIF" id="ent0014" data-source-line="53"><rect x="590.34" y="334.03" width="146.041" height="47.9375" fill="#EEEDFE" style="stroke:#534AB7;stroke-width:0.5;" rx="4" ry="4"/><text x="600.34" y="355.1687" fill="#26215C" font-size="12" lengthAdjust="spacing" textLength="117.6387" font-family="Arial">Notification module</text><text x="600.34" y="369.1374" fill="#26215C" font-size="12" lengthAdjust="spacing" textLength="126.041" font-family="Arial">In-app · read · delete</text></g><!--entity NEON--><g class="entity" data-qualified-name="EXT.NEON" id="ent0018" data-source-line="65"><path d="M852.21,711.53 C852.21,701.53 936.3897,701.53 936.3897,701.53 C936.3897,701.53 1020.5694,701.53 1020.5694,711.53 L1020.5694,748.4675 C1020.5694,758.4675 936.3897,758.4675 936.3897,758.4675 C936.3897,758.4675 852.21,758.4675 852.21,748.4675 L852.21,711.53" style="stroke:#185FA5;stroke-width:0.5;" fill="#E6F1FB"/><path d="M852.21,711.53 C852.21,721.53 936.3897,721.53 936.3897,721.53 C936.3897,721.53 1020.5694,721.53 1020.5694,711.53" style="stroke:#185FA5;stroke-width:0.5;" fill="none"/><text x="862.21" y="736.6687" fill="#042C53" font-size="12" lengthAdjust="spacing" textLength="104.3379" font-family="Arial">Neon PostgreSQL</text><text x="862.21" y="750.6374" fill="#042C53" font-size="12" lengthAdjust="spacing" textLength="148.3594" font-family="Arial">Prisma ORM · migrations</text></g><!--entity RESEND--><g class="entity" data-qualified-name="EXT.RESEND" id="ent0019" data-source-line="66"><rect x="843.85" y="614.03" width="185.0762" height="47.9375" fill="#EAF3DE" style="stroke:#534AB7;stroke-width:0.5;" rx="4" ry="4"/><text x="853.85" y="635.1687" fill="#26215C" font-size="12" lengthAdjust="spacing" textLength="67.377" font-family="Arial">Resend API</text><text x="853.85" y="649.1374" fill="#26215C" font-size="12" lengthAdjust="spacing" textLength="165.0762" font-family="Arial">Welcome · reminder emails</text></g><!--entity UMODEL--><g class="entity" data-qualified-name="MODELS.UMODEL" id="ent0021" data-source-line="71"><rect x="1173.72" y="818.05" width="135.1602" height="61.9063" fill="#E6F1FB" style="stroke:#534AB7;stroke-width:0.5;" rx="4" ry="4"/><text x="1183.72" y="839.1887" fill="#26215C" font-size="12" lengthAdjust="spacing" textLength="27.3516" font-family="Arial">User</text><text x="1183.72" y="853.1574" fill="#26215C" font-size="12" lengthAdjust="spacing" textLength="74.8828" font-family="Arial">UUID · email</text><text x="1183.72" y="867.1262" fill="#26215C" font-size="12" lengthAdjust="spacing" textLength="115.1602" font-family="Arial">role: USER | ADMIN</text></g><!--entity TMODEL--><g class="entity" data-qualified-name="MODELS.TMODEL" id="ent0022" data-source-line="72"><rect x="1178.29" y="716.05" width="126.0313" height="61.9063" fill="#E6F1FB" style="stroke:#534AB7;stroke-width:0.5;" rx="4" ry="4"/><text x="1188.29" y="737.1887" fill="#26215C" font-size="12" lengthAdjust="spacing" textLength="27.8848" font-family="Arial">Task</text><text x="1188.29" y="751.1574" fill="#26215C" font-size="12" lengthAdjust="spacing" textLength="71.7773" font-family="Arial">title · status</text><text x="1188.29" y="765.1262" fill="#26215C" font-size="12" lengthAdjust="spacing" textLength="106.0313" font-family="Arial">priority · dueDate</text></g><!--entity NMODEL--><g class="entity" data-qualified-name="MODELS.NMODEL" id="ent0023" data-source-line="73"><rect x="1170.12" y="614.05" width="142.3613" height="61.9063" fill="#E6F1FB" style="stroke:#534AB7;stroke-width:0.5;" rx="4" ry="4"/><text x="1180.12" y="635.1887" fill="#26215C" font-size="12" lengthAdjust="spacing" textLength="68.8535" font-family="Arial">Notification</text><text x="1180.12" y="649.1574" fill="#26215C" font-size="12" lengthAdjust="spacing" textLength="75.1816" font-family="Arial">title · isRead</text><text x="1180.12" y="663.1262" fill="#26215C" font-size="12" lengthAdjust="spacing" textLength="122.3613" font-family="Arial">userId FK · taskId FK</text></g><!--link WEB to NGINX--><g class="link" data-entity-1="ent0002" data-entity-2="ent0007" id="lnk24" data-source-line="77" data-link-type="dependency"><path d="M122.54,376.49 C175.23,376.49 251.44,376.49 251.44,376.49 C251.44,376.49 251.44,360.89 251.44,343.34" style="stroke:#888780;stroke-width:1;" fill="none" id="WEB-to-NGINX"/><polygon points="251.44,338.34,247.44,347.34,251.44,343.34,255.44,347.34,251.44,338.34" fill="#888780" style="stroke:#888780;stroke-width:1;stroke-linejoin:miter;stroke-miterlimit:10;"/><text x="151.06" y="388.6287" fill="#888780" font-size="12" lengthAdjust="spacing" textLength="54.0469" font-family="Arial">HTTP :80</text></g><!--link API to NGINX--><g class="link" data-entity-1="ent0003" data-entity-2="ent0007" id="lnk25" data-source-line="78" data-link-type="dependency"><path d="M125.15,314 C150.28,314 175.23,314 199.57,314" style="stroke:#888780;stroke-width:1;" fill="none" id="API-to-NGINX"/><polygon points="204.57,314,195.57,310,199.57,314,195.57,318,204.57,314" fill="#888780" style="stroke:#888780;stroke-width:1;stroke-linejoin:miter;stroke-miterlimit:10;"/><text x="109.86" y="326.1387" fill="#888780" font-size="12" lengthAdjust="spacing" textLength="54.0469" font-family="Arial">HTTP :80</text></g><!--link ADMIN to NGINX--><g class="link" data-entity-1="ent0004" data-entity-2="ent0007" id="lnk26" data-source-line="79" data-link-type="dependency"><path d="M121.13,251.51 C173.86,251.51 251.44,251.51 251.44,251.51 C251.44,251.51 251.44,267.11 251.44,284.66" style="stroke:#888780;stroke-width:1;" fill="none" id="ADMIN-to-NGINX"/><polygon points="251.44,289.66,255.44,280.66,251.44,284.66,247.44,280.66,251.44,289.66" fill="#888780" style="stroke:#888780;stroke-width:1;stroke-linejoin:miter;stroke-miterlimit:10;"/><text x="150.36" y="263.6487" fill="#888780" font-size="12" lengthAdjust="spacing" textLength="54.0469" font-family="Arial">HTTP :80</text></g><!--link NGINX to GW--><g class="link" data-entity-1="ent0007" data-entity-2="ent0009" id="lnk27" data-source-line="81" data-link-type="dependency"><path d="M296.53,314 C311.55,314 323.82,314 341.07,314" style="stroke:#888780;stroke-width:1;" fill="none" id="NGINX-to-GW"/><polygon points="346.07,314,337.07,310,341.07,314,337.07,318,346.07,314" fill="#888780" style="stroke:#888780;stroke-width:1;stroke-linejoin:miter;stroke-miterlimit:10;"/><text x="286.3" y="326.1387" fill="#888780" font-size="12" lengthAdjust="spacing" textLength="34.582" font-family="Arial">:3000</text></g><!--link GW to AUTH--><g class="link" data-entity-1="ent0009" data-entity-2="ent0011" id="lnk28" data-source-line="83" data-link-type="dependency"><path d="M440.44,289.79 C440.44,251.68 440.44,182 440.44,182 C440.44,182 519.02,182 583.82,182" style="stroke:#888780;stroke-width:1;" fill="none" id="GW-to-AUTH"/><polygon points="588.82,182,579.82,178,583.82,182,579.82,186,588.82,182" fill="#888780" style="stroke:#888780;stroke-width:1;stroke-linejoin:miter;stroke-miterlimit:10;"/></g><!--link GW to TASK--><g class="link" data-entity-1="ent0009" data-entity-2="ent0012" id="lnk29" data-source-line="84" data-link-type="dependency"><path d="M534.44,303.47 C604.65,303.47 688.44,303.47 688.44,303.47 C688.44,303.47 688.44,304.51 688.44,299.32" style="stroke:#888780;stroke-width:1;" fill="none" id="GW-to-TASK"/><polygon points="688.44,294.32,684.44,303.32,688.44,299.32,692.44,303.32,688.44,294.32" fill="#888780" style="stroke:#888780;stroke-width:1;stroke-linejoin:miter;stroke-miterlimit:10;"/></g><!--link GW to USER--><g class="link" data-entity-1="ent0009" data-entity-2="ent0013" id="lnk30" data-source-line="85" data-link-type="dependency"><path d="M440.44,338.21 C440.44,376.32 440.44,446 440.44,446 C440.44,446 523.61,446 589.05,446" style="stroke:#888780;stroke-width:1;" fill="none" id="GW-to-USER"/><polygon points="594.05,446,585.05,442,589.05,446,585.05,450,594.05,446" fill="#888780" style="stroke:#888780;stroke-width:1;stroke-linejoin:miter;stroke-miterlimit:10;"/></g><!--link GW to NOTIF--><g class="link" data-entity-1="ent0009" data-entity-2="ent0014" id="lnk31" data-source-line="86" data-link-type="dependency"><path d="M534.6,323.5 C586.08,323.5 639.44,323.5 639.44,323.5 C639.44,323.5 639.44,322.96 639.44,328.66" style="stroke:#888780;stroke-width:1;" fill="none" id="GW-to-NOTIF"/><polygon points="639.44,333.66,643.44,324.66,639.44,328.66,635.44,324.66,639.44,333.66" fill="#888780" style="stroke:#888780;stroke-width:1;stroke-linejoin:miter;stroke-miterlimit:10;"/></g><!--link AUTH to BULL--><g class="link" data-entity-1="ent0011" data-entity-2="ent0015" id="lnk32" data-source-line="88" data-link-type="dependency"><path d="M737.62,179.03 C818.49,179.03 936.44,179.03 936.44,179.03 C936.44,179.03 936.44,227.2 936.44,259.59" style="stroke:#888780;stroke-width:1;" fill="none" id="AUTH-to-BULL"/><polygon points="936.44,264.59,940.44,255.59,936.44,259.59,932.44,255.59,936.44,264.59" fill="#888780" style="stroke:#888780;stroke-width:1;stroke-linejoin:miter;stroke-miterlimit:10;"/><text x="819.81" y="191.1687" fill="#888780" font-size="12" lengthAdjust="spacing" textLength="59.7012" font-family="Arial">queue job</text></g><!--link TASK to BULL--><g class="link" data-entity-1="ent0012" data-entity-2="ent0015" id="lnk33" data-source-line="89" data-link-type="dependency"><path d="M743.07,274.68 C758.65,274.68 770.43,274.68 787.37,274.68" style="stroke:#888780;stroke-width:1;" fill="none" id="TASK-to-BULL"/><polygon points="792.37,274.68,783.37,270.68,787.37,274.68,783.37,278.68,792.37,274.68" fill="#888780" style="stroke:#888780;stroke-width:1;stroke-linejoin:miter;stroke-miterlimit:10;"/><text x="768.72" y="271.8187" fill="#888780" font-size="12" lengthAdjust="spacing" textLength="59.7012" font-family="Arial">queue job</text></g><!--link AUTH to REDIS--><g class="link" data-entity-1="ent0011" data-entity-2="ent0016" id="lnk34" data-source-line="90" data-link-type="dependency"><path d="M663.44,206.29 C663.44,210.99 663.44,214.49 663.44,214.49 C663.44,214.49 997.17,214.49 1155.95,214.49" style="stroke:#888780;stroke-width:1;" fill="none" id="AUTH-to-REDIS"/><polygon points="1160.95,214.49,1151.95,210.49,1155.95,214.49,1151.95,218.49,1160.95,214.49" fill="#888780" style="stroke:#888780;stroke-width:1;stroke-linejoin:miter;stroke-miterlimit:10;"/><text x="872.1" y="226.6287" fill="#888780" font-size="12" lengthAdjust="spacing" textLength="35.5371" font-family="Arial">cache</text></g><!--link TASK to REDIS--><g class="link" data-entity-1="ent0012" data-entity-2="ent0016" id="lnk35" data-source-line="91" data-link-type="dependency"><path d="M743.04,256.5 C884.42,256.5 1164.44,256.5 1164.44,256.5 C1164.44,256.5 1164.44,258 1164.44,253.3" style="stroke:#888780;stroke-width:1;" fill="none" id="TASK-to-REDIS"/><polygon points="1164.44,248.3,1160.44,257.3,1164.44,253.3,1168.44,257.3,1164.44,248.3" fill="#888780" style="stroke:#888780;stroke-width:1;stroke-linejoin:miter;stroke-miterlimit:10;"/><text x="921.84" y="253.6387" fill="#888780" font-size="12" lengthAdjust="spacing" textLength="35.5371" font-family="Arial">cache</text></g><!--link TASK to NEON--><g class="link" data-entity-1="ent0012" data-entity-2="ent0018" id="lnk36" data-source-line="93" data-link-type="dependency"><path d="M742.82,284.32 C761.68,284.32 776.44,284.32 776.44,284.32 C776.44,284.32 776.44,715.77 776.44,715.77 C776.44,715.77 808.37,715.77 846.73,715.77" style="stroke:#888780;stroke-width:1;" fill="none" id="TASK-to-NEON"/><polygon points="851.73,715.77,842.73,711.77,846.73,715.77,842.73,719.77,851.73,715.77" fill="#888780" style="stroke:#888780;stroke-width:1;stroke-linejoin:miter;stroke-miterlimit:10;"/><text x="735.44" y="533.0187" fill="#888780" font-size="12" lengthAdjust="spacing" textLength="40.7988" font-family="Arial">Prisma</text></g><!--link USER to NEON--><g class="link" data-entity-1="ent0013" data-entity-2="ent0018" id="lnk37" data-source-line="94" data-link-type="dependency"><path d="M663.44,470.41 C663.44,541.63 663.44,744.23 663.44,744.23 C663.44,744.23 766.73,744.23 846.9,744.23" style="stroke:#888780;stroke-width:1;" fill="none" id="USER-to-NEON"/><polygon points="851.9,744.23,842.9,740.23,846.9,744.23,842.9,748.23,851.9,744.23" fill="#888780" style="stroke:#888780;stroke-width:1;stroke-linejoin:miter;stroke-miterlimit:10;"/><text x="622.44" y="713.6887" fill="#888780" font-size="12" lengthAdjust="spacing" textLength="40.7988" font-family="Arial">Prisma</text></g><!--link NOTIF to NEON--><g class="link" data-entity-1="ent0014" data-entity-2="ent0018" id="lnk38" data-source-line="95" data-link-type="dependency"><path d="M736.67,358 C749.82,358 759.44,358 759.44,358 C759.44,358 759.44,730 759.44,730 C759.44,730 801.31,730 846.8,730" style="stroke:#888780;stroke-width:1;" fill="none" id="NOTIF-to-NEON"/><polygon points="851.8,730,842.8,726,846.8,730,842.8,734,851.8,730" fill="#888780" style="stroke:#888780;stroke-width:1;stroke-linejoin:miter;stroke-miterlimit:10;"/><text x="718.44" y="590.9387" fill="#888780" font-size="12" lengthAdjust="spacing" textLength="40.7988" font-family="Arial">Prisma</text></g><!--link BULL to REDIS--><g class="link" data-entity-1="ent0015" data-entity-2="ent0016" id="lnk39" data-source-line="97" data-link-type="dependency"><path d="M1080.42,289 C1127.27,289 1167.44,289 1167.44,289 C1167.44,289 1167.44,271.68 1167.44,253.2" style="stroke:#888780;stroke-width:1;" fill="none" id="BULL-to-REDIS"/><polygon points="1167.44,248.2,1163.44,257.2,1167.44,253.2,1171.44,257.2,1167.44,248.2" fill="#888780" style="stroke:#888780;stroke-width:1;stroke-linejoin:miter;stroke-miterlimit:10;"/><text x="1104.33" y="301.1387" fill="#888780" font-size="12" lengthAdjust="spacing" textLength="39.1582" font-family="Arial">broker</text></g><!--link BULL to RESEND--><g class="link" data-entity-1="ent0015" data-entity-2="ent0019" id="lnk40" data-source-line="98" data-link-type="dependency"><path d="M936.44,313.26 C936.44,377.26 936.44,545.08 936.44,608.9" style="stroke:#888780;stroke-width:1;" fill="none" id="BULL-to-RESEND"/><polygon points="936.44,613.9,940.44,604.9,936.44,608.9,932.44,604.9,936.44,613.9" fill="#888780" style="stroke:#888780;stroke-width:1;stroke-linejoin:miter;stroke-miterlimit:10;"/><text x="870.44" y="475.7187" fill="#888780" font-size="12" lengthAdjust="spacing" textLength="65.7656" font-family="Arial">send email</text></g><!--link NEON to UMODEL--><g class="link" data-entity-1="ent0018" data-entity-2="ent0021" id="lnk41" data-source-line="100" data-link-type="dependency"><path d="M936.44,758.81 C936.44,794.02 936.44,849 936.44,849 C936.44,849 1078.42,849 1168.26,849" style="stroke:#888780;stroke-width:1;" fill="none" id="NEON-to-UMODEL"/><polygon points="1173.26,849,1164.26,845,1168.26,849,1164.26,853,1173.26,849" fill="#888780" style="stroke:#888780;stroke-width:1;stroke-linejoin:miter;stroke-miterlimit:10;"/></g><!--link NEON to TMODEL--><g class="link" data-entity-1="ent0018" data-entity-2="ent0022" id="lnk42" data-source-line="101" data-link-type="dependency"><path d="M1020.92,737.26 C1070.62,737.26 1127.43,737.26 1172.93,737.26" style="stroke:#888780;stroke-width:1;" fill="none" id="NEON-to-TMODEL"/><polygon points="1177.93,737.26,1168.93,733.26,1172.93,737.26,1168.93,741.26,1177.93,737.26" fill="#888780" style="stroke:#888780;stroke-width:1;stroke-linejoin:miter;stroke-miterlimit:10;"/></g><!--link NEON to NMODEL--><g class="link" data-entity-1="ent0018" data-entity-2="ent0023" id="lnk43" data-source-line="102" data-link-type="dependency"><path d="M1020.96,708.79 C1111.24,708.79 1241.44,708.79 1241.44,708.79 C1241.44,708.79 1241.44,697.34 1241.44,681.15" style="stroke:#888780;stroke-width:1;" fill="none" id="NEON-to-NMODEL"/><polygon points="1241.44,676.15,1237.44,685.15,1241.44,681.15,1245.44,685.15,1241.44,676.15" fill="#888780" style="stroke:#888780;stroke-width:1;stroke-linejoin:miter;stroke-miterlimit:10;"/></g><?plantuml-src pLR1Sk964BthAxhm8RkLSWAsCHI7L0bfv6MDXLU8i5LB3WCQuud531c9zJg9gtBA1wJoBxddK_PBqZCZWOIDZzbrKONedduzUjtzsYcxoI6NeFZoDeU4AxR8kHIEazrniQQAha2Rg5Yc37vp0FfqSRTKSYCIJwPImH4Xn0-8zaYLC5LOswTdRh-3ra2AlB2Td9-qsXxQ8Xkk15FGTHuhkTQ8JfS7CWNjuEnffaxGwVX-FTCsUpLJgrbBbT2SpcbswAtEWrRGty_LwhO3jrtFrJmxyTgdDMYgbBmtkCMPRhVRwJRhSJNRcF_AeDMgNv3Tq4sQQtT8LmnSnMdwlD-6drISAHSiVrWpa2g_bHM7a0dBs1hEcjKIKt6dZUscutm3d__-mtx06mv868ztbY_uSShUQ7WfPoBF6a2pxGsFWXO9IDUGlclOnfJDuNkuadEUiWQ0ZfYIFZuKv-kdhsMMhwZ02FTwq32dyU7GQJTPSG4BSva2s_Ml1k7sz6ETJ7Sw1kATV1LarlWiBmOVyfFlLdoXv4-6Msqx8dqSEXzvnPVVHlXoSOSJvSdLMcRC7FP7tYM9uCWdP16uzdoDhd39nQUPw7MRyFdFlw1tscmsJMHuCGZVOw9Mq2R4XcqJXIpBtuvj5JwO47kra8nZj1VYKsQhbmTZBcZExkd3JBoTnl3lFn3rNKz_-_48FjAKemQWs1d4YoaSUSJh1-SbrgxVf6BOGyacPRRfhaQ-xhWc2Gmp04-JR_9RM9cGcOZOacSvyeMPXn9fq0zueqOHfnjd4h-1YfO-0OnfThS5zAA9hp5kU5h0hYd2uiisIi3O7L--23Z9CB84jArSmYffNdJtXtYJCHRt9RnGvlo6BmoXMzo1EARhjS5aDD7V2KjPRZic7CM3O0_oyPb2zZTfUlKExgN2dijcOihIXKGzP2lAKukDjqUHpk1LwrR1dDteWYKRzjhawK-6GwoMIppISIf9AYaYbd14zkZYbi6tK6ISAuaP3KP4_C6u0lAuFzpaVKoYq1q2ylJZm2F_esRk1fbymdOGD8KnKn_vekXMl9fkri0DsgPPjuiFfmjhfKLlgTZutN0chXNFLXH6qPNcTSMNojGpAsPk56ejtAx66e4P4ucUqrrzAfMnjSeAbOp8c8G-0hd1gK_scVJTsDKJHePVTE_iMFMHBpt-BCq0NkrnzheK17tTWfhz9QH7RIOcau6PBaF5JEWXwzcn-jtkZKPzu0pcysnhCPY9dEUfOJdBQRx1zbqhBXNF7yoSRPY_rOD24bv0h4vl1Pbd4SxjJ6pm3GO919VQc6DsyyDsHHrrV-T5qMWw_bfMdYwhNV_7YRmNnpyKkwS7R-Bu6d0rENRV7tQR1N_GxLXBwSUTqhEBpd7mkJHhiQ_-rbfT_QsRelhR2ANZs1rH6esg8Vml6xPXyBESErRo3_kBUFEVFXwmajQ3XHQzClXvvxxNAa4Fh5muTZSSybgPF-Hrp3tBIzkqwBNIMpXtbpAwqGEZDMQEa76DjsNED6FT5ZzZiqtx7m00?></g></svg>